<?xml version="1.0" encoding="UTF-8" standalone="no"?>
<svg viewBox="0 0 128 128">
    <path fill="#DCDDDE" stroke="#D9D9D9" stroke-width="0.5956" d="M126.8,61.4c-10.2-1.4-47.7-3.3-64.4-6 c-13.5-2.2-26.6-6.2-39.2-10.4c-3.2-1.1-9-3.3-12.7-5.3c-2.3-1.8-7.9-4.4-9.5-6.9c24.3,11.6,34.1,14.7,62.7,20.5 C75.3,55.6,117.4,59,126.8,61.4L126.8,61.4z"></path><path fill="#231F20" stroke="#231F20" stroke-width="0.5956" d="M126.8,58.7c-10.2-1.4-47.7-3.3-64.4-6 c-13.5-2.2-26.6-6.2-39.2-10.4c-3.2-1.1-9-3.3-12.7-5.3c-2.3-1.8-7.9-4.4-9.5-6.9c24.3,11.6,34.1,14.7,62.7,20.5 C75.4,52.9,117.5,56.3,126.8,58.7L126.8,58.7z"></path><path fill="#231F20" d="M28.3,91.4h-5.4l-1.4-4.1H14l-1.4,4.1H7.4l7.4-20.2h6L28.3,91.4z M20.2,83.6l-2.5-7.2l-2.5,7.2H20.2z"></path><path fill="#231F20" d="M46.7,83.6c0,1.3-0.2,2.4-0.6,3.4c-0.4,1-0.9,1.9-1.5,2.5c-0.6,0.7-1.4,1.2-2.2,1.6 c-0.8,0.4-1.7,0.5-2.6,0.5c-0.9,0-1.6-0.1-2.2-0.3c-0.6-0.2-1.2-0.4-1.9-0.8v6.3h-4.9V76.2h4.9v1.6c0.7-0.6,1.5-1.1,2.3-1.4 c0.8-0.4,1.7-0.6,2.7-0.6c1.9,0,3.4,0.7,4.4,2.1C46.2,79.2,46.7,81.1,46.7,83.6z M41.7,83.7c0-1.5-0.3-2.5-0.8-3.2 c-0.5-0.7-1.3-1-2.4-1c-0.5,0-0.9,0.1-1.4,0.2c-0.5,0.1-0.9,0.3-1.4,0.6v7.6c0.3,0.1,0.7,0.2,1,0.2c0.4,0,0.7,0.1,1.1,0.1 c1.3,0,2.2-0.4,2.9-1.1C41.4,86.3,41.7,85.2,41.7,83.7z"></path><path fill="#231F20" d="M59.5,89.8c-0.3,0.2-0.6,0.4-1,0.7c-0.4,0.3-0.8,0.5-1.1,0.7c-0.5,0.2-1,0.4-1.5,0.5 c-0.5,0.1-1.1,0.2-1.7,0.2c-1.4,0-2.7-0.4-3.6-1.3c-1-0.9-1.5-2-1.5-3.4c0-1.1,0.2-2,0.7-2.7c0.5-0.7,1.2-1.3,2.1-1.7 c0.9-0.4,2-0.7,3.4-0.9c1.3-0.2,2.7-0.3,4.2-0.4v-0.1c0-0.8-0.3-1.4-1-1.7s-1.7-0.5-3-0.5c-0.8,0-1.7,0.1-2.6,0.4 c-0.9,0.3-1.6,0.5-2,0.7h-0.4v-3.7c0.5-0.1,1.4-0.3,2.5-0.5c1.2-0.2,2.3-0.3,3.5-0.3c2.8,0,4.8,0.4,6,1.3s1.8,2.2,1.8,4v10.3h-4.8 V89.8z M59.5,87.4v-3.2c-0.7,0.1-1.4,0.1-2.1,0.2c-0.8,0.1-1.3,0.2-1.7,0.3c-0.5,0.2-0.9,0.4-1.1,0.7c-0.3,0.3-0.4,0.7-0.4,1.2 c0,0.3,0,0.6,0.1,0.8c0.1,0.2,0.2,0.4,0.4,0.6c0.2,0.2,0.5,0.3,0.7,0.4c0.3,0.1,0.7,0.1,1.4,0.1c0.5,0,1-0.1,1.5-0.3 C58.6,88,59.1,87.7,59.5,87.4z"></path><path fill="#231F20" d="M76.7,91.8c-1.3,0-2.5-0.2-3.6-0.5c-1.1-0.3-2-0.8-2.9-1.5c-0.8-0.7-1.4-1.5-1.9-2.5 c-0.4-1-0.7-2.2-0.7-3.5c0-1.4,0.2-2.6,0.7-3.7s1.1-1.9,2-2.6c0.8-0.6,1.8-1.1,2.8-1.4c1.1-0.3,2.2-0.4,3.3-0.4c1,0,2,0.1,2.9,0.3 c0.9,0.2,1.7,0.5,2.4,0.9v4.2h-0.7c-0.2-0.2-0.4-0.4-0.7-0.6c-0.3-0.2-0.6-0.4-1-0.6c-0.4-0.2-0.8-0.4-1.2-0.5 c-0.4-0.1-1-0.2-1.5-0.2c-1.3,0-2.3,0.4-3,1.2c-0.7,0.8-1,1.9-1,3.4c0,1.5,0.4,2.6,1.1,3.3c0.7,0.8,1.7,1.1,3,1.1 c0.6,0,1.2-0.1,1.7-0.2c0.5-0.1,0.9-0.3,1.2-0.5c0.3-0.2,0.6-0.4,0.8-0.6c0.2-0.2,0.5-0.4,0.6-0.6h0.7v4.2 c-0.8,0.4-1.6,0.6-2.4,0.9C78.6,91.7,77.7,91.8,76.7,91.8z"></path><path fill="#231F20" d="M100.3,91.4h-4.9v-7.5c0-0.6,0-1.2-0.1-1.8s-0.2-1.1-0.3-1.3c-0.2-0.3-0.4-0.6-0.8-0.7 c-0.3-0.2-0.8-0.2-1.5-0.2c-0.4,0-0.9,0.1-1.3,0.2C91,80,90.5,80.3,90,80.6v10.8h-4.9V70.3H90v7.5c0.9-0.7,1.7-1.2,2.5-1.6 c0.8-0.4,1.7-0.5,2.7-0.5c1.6,0,2.9,0.5,3.8,1.4c0.9,1,1.4,2.4,1.4,4.3V91.4z"></path><path fill="#231F20" d="M119.8,84.7h-11.2c0.1,1.2,0.5,2.1,1.4,2.7c0.8,0.6,2.1,0.9,3.7,0.9c1,0,2-0.2,3-0.6 c1-0.4,1.7-0.8,2.3-1.2h0.5v3.9c-1.1,0.4-2.1,0.8-3.1,1c-1,0.2-2.1,0.3-3.2,0.3c-3,0-5.4-0.7-7-2.1c-1.6-1.4-2.4-3.3-2.4-5.9 c0-2.5,0.8-4.5,2.3-6c1.5-1.5,3.6-2.2,6.3-2.2c2.5,0,4.3,0.6,5.6,1.9c1.2,1.2,1.9,3,1.9,5.4V84.7z M115,81.8c0-1-0.3-1.8-0.8-2.3 c-0.5-0.5-1.2-0.8-2.2-0.8c-0.9,0-1.7,0.2-2.3,0.7c-0.6,0.5-0.9,1.3-1,2.3H115z"></path>
</svg>
